<svg width="25" height="25" viewBox="0 0 25 25" fill="none" xmlns="http://www.w3.org/2000/svg">
<path d="M8.15576 15.1045C6.19678 15.2305 4.41895 15.9766 3.41016 18.6348C3.29541 18.938 3.01953 19.1221 2.69775 19.1221C2.15527 19.1221 0.478027 17.771 0 17.4448C0.000488281 21.4658 1.85254 25 6.25049 25C9.95459 25 12.5005 22.8628 12.5005 19.1313C12.5005 18.9795 12.4687 18.8345 12.4531 18.6855L8.15576 15.1045ZM22.3584 0C21.6182 0 20.9243 0.327637 20.395 0.803223C10.4141 9.71924 9.37549 9.92871 9.37549 12.5532C9.37549 13.2222 9.53418 13.8599 9.80176 14.4429L12.918 17.0396C13.27 17.1274 13.6328 17.1875 14.0112 17.1875C17.0439 17.1875 18.8018 14.9673 24.3218 4.66504C24.6821 3.96436 25.0005 3.20752 25.0005 2.41943C25.0005 1.00781 23.731 0 22.3584 0Z" fill="black"/>
</svg>
