<svg width="25" height="22" viewBox="0 0 25 22" fill="none" xmlns="http://www.w3.org/2000/svg">
<path d="M24.3136 11.8135C25.2288 10.8982 25.2288 9.41426 24.3136 8.49898L16.5011 0.686481C15.5858 -0.228802 14.1018 -0.228851 13.1865 0.686481L0.686462 13.1865C-0.228821 14.1018 -0.228821 15.5857 0.686462 16.501L5.37396 21.1885C5.81352 21.6281 6.40967 21.875 7.03129 21.875H24.4141C24.7377 21.875 25 21.6127 25 21.2891V19.3359C25 19.0124 24.7377 18.75 24.4141 18.75H17.3771L24.3136 11.8135ZM9.53685 8.75557L16.2445 15.4632L12.9577 18.75H7.35492L3.44867 14.8438L9.53685 8.75557Z" fill="black"/>
</svg>
